<?xml version="1.0" encoding="utf-8"?>
<!-- Generator: Adobe Illustrator 19.1.1, SVG Export Plug-In . SVG Version: 6.00 Build 0)  -->
<!DOCTYPE svg PUBLIC "-//W3C//DTD SVG 1.1//EN" "http://www.w3.org/Graphics/SVG/1.1/DTD/svg11.dtd">
<svg version="1.1" id="Layer_1" xmlns="http://www.w3.org/2000/svg" xmlns:xlink="http://www.w3.org/1999/xlink" x="0px" y="0px"
	 viewBox="184.5 359 125 36" style="enable-background:new 184.5 359 125 36;" xml:space="preserve">
<style type="text/css">
	.st0{clip-path:url(#SVGID_2_);enable-background:new    ;}
	.st1{fill:#333333;}
	.st2{fill:#2E6A9B;}
	.st3{fill:#3B7AAD;}
	.st4{clip-path:url(#SVGID_4_);enable-background:new    ;}
	.st5{clip-path:url(#SVGID_6_);enable-background:new    ;}
	.st6{fill:#FFFFFF;}
	.st7{fill:#FFFFFF;fill-opacity:0.698;}
	.st8{clip-path:url(#SVGID_8_);enable-background:new    ;}
</style>
<g>
	<defs>
		<rect id="SVGID_7_" x="230.4" y="359.4" width="104.4" height="35.1"/>
	</defs>
	<clipPath id="SVGID_2_">
		<use xlink:href="#SVGID_7_"  style="overflow:visible;"/>
	</clipPath>
	<g class="st0">
		<path class="st6" d="M244.5,380.8h-9.4c0.1,3.3,1.6,5.3,4.3,5.3c1.8,0,3.4-0.8,4.8-2l0.3,1.7c-1.3,1.1-3.1,1.9-5.2,1.9
			c-3.5,0-6.1-2.4-6.1-7.1c0-4.3,2.5-7,5.8-7c3.7,0,5.5,3,5.5,6.8C244.5,380.5,244.5,380.6,244.5,380.8z M239.1,375.1
			c-2.1,0-3.5,1.6-3.9,4.2h7.4C242.4,376.9,241.2,375.1,239.1,375.1z"/>
		<path class="st6" d="M257.5,387.4l-0.3-2c-1,1.2-2.4,2.3-4.4,2.3c-3,0-5.5-2.1-5.5-6.7c0-4.9,2.9-7.4,6.2-7.4
			c1.4,0,2.6,0.3,3.5,0.7v-7.2l1.9-0.3v20.5H257.5z M257,376.1c-1.1-0.5-2.1-0.8-3.5-0.8c-2.4,0-4.3,1.8-4.3,5.6
			c0,3.3,1.6,5.1,3.7,5.1c1.6,0,2.9-1,4.1-2.4V376.1z"/>
		<path class="st6" d="M272.4,387.4l-0.3-2c-1.5,1.3-3,2.3-4.9,2.3c-2.7,0-4-1.6-4-4.1v-9.7h1.9v9.3c0,1.7,0.8,2.8,2.5,2.8
			c1.4,0,2.9-0.9,4.4-2.3v-9.8h1.9v13.5H272.4z"/>
		<path class="st6" d="M278.5,387.4v-20.2l1.9-0.3v20.5H278.5z"/>
		<path class="st6" d="M286.1,370.6c-0.7,0-1.4-0.6-1.4-1.4c0-0.7,0.6-1.4,1.4-1.4c0.7,0,1.3,0.6,1.3,1.4
			C287.5,370,286.9,370.6,286.1,370.6z M285.2,387.4v-13.5h1.9v13.5H285.2z"/>
		<path class="st6" d="M296.3,368.7c-1.3,0-2.1,0.6-2.1,2.1v3.1h2.8l0.3,1.6h-3v11.9h-1.9v-11.9h-2.1v-1.6h2.1v-3.3
			c0-2.5,1.5-3.6,3.8-3.6c0.5,0,0.7,0,1,0.1l0.3,1.7C297.2,368.7,296.9,368.7,296.3,368.7z"/>
		<path class="st6" d="M304.6,387.6c-2.1,0-3.5-0.8-3.5-3.3v-8.8H299v-1.6h2.1v-4.7l1.9-0.3v5h3.1l0.3,1.6H303v8.5c0,1.4,0.5,2,2,2
			c0.4,0,0.9-0.1,1.3-0.1l0.3,1.6C306.1,387.5,305.4,387.6,304.6,387.6z"/>
	</g>
</g>
<g>
	<g transform="matrix( 1, 0, 0, 1, 0,0) ">
		<g>
			<g id="Layer0_3_FILL_1_">
				<path class="st7" d="M202,372L202,372l0,3.2h0l2.4-1c-0.2-0.7-0.3-1.5-0.3-2.3c0-0.3,0-0.6,0.1-0.9L202,372 M218.7,373.8
					c-0.2,0.7-0.5,1.4-0.9,2c-0.3,0.5-0.6,1-1.1,1.4v0c-1.5,1.4-3.2,2.2-5.2,2.2c-2.1,0-3.8-0.7-5.2-2.2v0c-0.4-0.4-0.8-0.9-1.1-1.4
					c-0.1-0.1-0.1-0.2-0.2-0.3l-2.9,1.2h0V395l2.6-1.2v-3c0-0.2,0.1-0.4,0.2-0.5c0.1-0.1,0.3-0.2,0.4-0.2c0.2,0,0.4,0.1,0.5,0.2
					c0.1,0.1,0.2,0.3,0.2,0.5v2.4l12.9-5.9v-14.1C218.8,373.3,218.7,373.5,218.7,373.8 M215.7,367.7c-0.4-0.4-0.9-0.7-1.3-1
					l-8.8,3.8c-0.1,0.5-0.2,1-0.2,1.5c0,0.9,0.2,1.7,0.5,2.4c0.2,0.5,0.5,1,0.9,1.4c0.1,0.1,0.3,0.3,0.4,0.4
					c1.2,1.2,2.6,1.8,4.3,1.8c1.6,0,3.1-0.6,4.2-1.8c0.1-0.1,0.3-0.3,0.4-0.4c0.6-0.7,1-1.5,1.3-2.3v0c0-0.2,0.1-0.3,0.1-0.5
					c0-0.1,0-0.1,0-0.1c0-0.3,0-0.6,0-0.9C217.5,370.2,216.9,368.8,215.7,367.7 M214,369.4L214,369.4c0.7,0.7,1.1,1.6,1.1,2.6
					c0,1-0.3,1.8-1,2.5l0,0c-0.7,0.7-1.5,1-2.5,1c-1,0-1.8-0.4-2.5-1.1c-0.7-0.7-1-1.5-1-2.5c0-1,0.3-1.8,1-2.5c0.7-0.7,1.5-1,2.5-1
					C212.4,368.4,213.3,368.7,214,369.4 M213,370.4L213,370.4c-0.5-0.4-1-0.6-1.6-0.6c-0.6,0-1.1,0.2-1.6,0.6
					c-0.4,0.4-0.6,1-0.6,1.6c0,0.6,0.2,1.2,0.6,1.6c0.4,0.4,1,0.6,1.6,0.6c0.6,0,1.1-0.2,1.5-0.6l0,0c0.4-0.4,0.6-0.9,0.6-1.5
					C213.7,371.3,213.5,370.8,213,370.4 M218.8,363.2V359l-16.8,7.8h0v3.8h0L218.8,363.2z"/>
			</g>
		</g>
	</g>
	<g transform="matrix( 1, 0, 0, 1, 0,0) ">
		<g>
			<g id="Layer0_3_MEMBER_1_FILL_1_">
				<path class="st6" d="M202,376.7l-2.9-1.2c-0.3,0.6-0.8,1.1-1.3,1.6v0c-1.5,1.4-3.2,2.2-5.2,2.2c-2,0-3.8-0.7-5.2-2.2v0
					c-1-1-1.7-2.1-2-3.4c-0.1-0.2-0.1-0.4-0.1-0.6v0l0-0.2v14.4l12.6,5.8v-2.3c0-0.2,0.1-0.4,0.2-0.5c0.1-0.1,0.3-0.2,0.5-0.2
					c0.2,0,0.3,0.1,0.5,0.2c0.1,0.1,0.2,0.3,0.2,0.5v2.9l2.7,1.3V376.7 M200,372c0,0.8-0.1,1.6-0.3,2.3l2.3,1V372l-2-0.9
					C199.9,371.4,200,371.7,200,372 M196.8,376.2c0.6-0.5,1-1.2,1.3-1.9c0.3-0.7,0.4-1.5,0.4-2.4c0-0.5-0.1-1-0.2-1.5l-8.8-3.8
					c-0.5,0.3-1,0.6-1.4,1c-1.2,1.2-1.8,2.6-1.8,4.3c0,0.3,0,0.6,0.1,0.9c0,0,0,0.1,0,0.1c0,0.1,0.1,0.3,0.1,0.5l0,0
					c0.2,1,0.8,2,1.6,2.8h0c1.2,1.2,2.6,1.8,4.2,1.8C194.2,378,195.6,377.4,196.8,376.2 M192.6,368.4c1,0,1.8,0.3,2.5,1
					c0.7,0.7,1,1.5,1,2.5c0,1-0.3,1.8-1,2.5c-0.7,0.7-1.5,1.1-2.5,1.1c-1,0-1.8-0.3-2.5-1v0c-0.7-0.7-1.1-1.5-1.1-2.5
					c0-1,0.4-1.8,1.1-2.5v0C190.8,368.7,191.6,368.4,192.6,368.4 M194.1,370.4c-0.4-0.4-1-0.6-1.6-0.6c-0.6,0-1.1,0.2-1.5,0.6h0
					c-0.4,0.4-0.6,1-0.6,1.6s0.2,1.1,0.6,1.5c0,0,0,0,0,0c0.4,0.4,0.9,0.6,1.5,0.6c0.6,0,1.1-0.2,1.6-0.6c0.4-0.4,0.6-0.9,0.6-1.6
					C194.8,371.3,194.5,370.8,194.1,370.4 M185.2,359v4.2l16.8,7.3v-3.8h0L185.2,359z"/>
			</g>
		</g>
	</g>
</g>
</svg>
